<svg id="Layer_1" data-name="Layer 1" xmlns="http://www.w3.org/2000/svg" viewBox="0 0 668 304.01"><defs><style>.cls-1{fill:#317b87;}.cls-2,.cls-4{fill:#f16b6c;}.cls-12,.cls-3,.cls-8{fill:#fbf8ec;}.cls-4{stroke:#ee9499;}.cls-10,.cls-4,.cls-5,.cls-9{stroke-miterlimit:10;}.cls-5{fill:#231f20;}.cls-10,.cls-5,.cls-9{stroke:#fff;}.cls-11,.cls-6{fill:#fff;}.cls-7{fill:#ed313a;}.cls-8{opacity:0.2;}.cls-10,.cls-9{fill:none;}.cls-9{stroke-width:5px;}.cls-10{stroke-width:3px;}.cls-11{opacity:0.11;}.cls-12{font-size:39.73px;font-family:Intro-Inline, Intro Inline;}</style></defs><title>Artboard 1</title><polygon class="cls-1" points="17.17 178.8 0 178.8 0 170.04 6.22 170.04 6.22 166.24 17.51 166.24 17.51 157.48 27.54 157.48 27.54 152.53 37.56 152.53 37.56 147.57 42.52 147.57 42.52 137.55 57.49 137.55 57.49 141.35 64.75 141.35 64.75 118.88 72.24 118.88 72.24 116.35 81 116.35 81 118.88 87.22 118.88 87.22 145.04 92.18 145.04 92.18 83.97 124.67 83.97 124.67 135.13 129.28 135.13 133.43 130.87 133.43 121.19 142.18 114.97 142.18 108.86 178.36 108.86 178.36 105.06 183.32 105.06 183.32 96.3 192.07 96.3 192.07 92.5 202.1 92.5 202.1 96.3 209.59 96.3 209.59 86.28 222.03 86.28 222.03 107.48 232.05 107.48 232.05 112.43 235.86 112.43 235.86 81.21 295.77 81.21 295.77 97.45 312.02 97.45 312.02 91.23 327 91.23 327 97.45 331.95 97.45 331.95 73.72 341.97 73.72 341.97 77.52 350.73 77.52 350.73 74.98 356.61 74.98 357.53 61.73 358.45 74.98 362.25 74.98 363.18 61.73 364.1 74.98 369.86 74.98 369.86 77.52 377.35 77.52 377.35 105.06 388.64 105.06 388.64 102.52 389.91 102.52 389.91 58.85 393.94 58.85 397.97 27.63 402 58.85 406.15 58.85 406.15 102.52 408.69 102.52 408.69 112.55 417.44 112.55 417.44 91.35 421.25 91.35 421.25 86.39 436.22 86.39 436.22 81.44 451.2 81.44 451.2 86.39 456.16 86.39 456.16 90.77 456.16 110.13 459.96 110.13 459.96 120.15 463.76 120.15 463.76 86.51 475.05 86.51 475.05 82.7 486.35 82.7 486.35 86.51 492.57 86.51 492.57 49.06 500.06 49.06 500.06 41.57 527.59 41.57 527.59 49.06 536.12 49.06 536.12 92.73 552.37 92.73 552.37 86.51 577.37 86.51 577.37 113.93 602.37 113.93 602.37 127.64 608.59 127.64 608.59 143.89 614.82 143.89 614.82 141.35 619.77 141.35 623.11 114.16 626.91 137.66 632.1 137.66 632.1 108.86 667.01 108.86 667.01 169.58 667.01 178.8 632.33 178.8 57.73 178.8 42.17 178.8 28.11 178.8 17.17 178.8"/><rect class="cls-1" y="142.5" width="668" height="125.49"/><rect class="cls-2" x="178.87" y="270.99" width="14.55" height="23.84" rx="3.2" ry="3.2"/><rect class="cls-2" x="285.31" y="270.99" width="14.55" height="23.84" rx="3.2" ry="3.2"/><rect class="cls-3" x="168.52" y="162.81" width="136.48" height="116.13" rx="12" ry="12"/><path class="cls-3" d="M297.57,164.15H175a4.19,4.19,0,0,1-3.92-4.4V147.08a4.19,4.19,0,0,1,3.92-4.4L236.7,138l60.87,4.68a4.19,4.19,0,0,1,3.92,4.4v12.66A4.19,4.19,0,0,1,297.57,164.15Z"/><path class="cls-4" d="M291.78,162h-111a3.93,3.93,0,0,1-3.92-3.92v-8.16a3.93,3.93,0,0,1,3.92-3.92l55.48-2.28L291.78,146a3.93,3.93,0,0,1,3.92,3.92v8.16A3.93,3.93,0,0,1,291.78,162Z"/><rect class="cls-2" x="172.98" y="165.71" width="62.48" height="55.58" rx="12" ry="12"/><rect class="cls-2" x="239.01" y="165.71" width="62.48" height="55.58" rx="12" ry="12"/><rect class="cls-5" x="193.42" y="229.81" width="85.46" height="6.19" rx="1.36" ry="1.36"/><rect class="cls-2" x="187.96" y="223.93" width="94.98" height="20.75" rx="4.56" ry="4.56"/><rect class="cls-2" x="157.95" y="165.71" width="10.84" height="15.17" rx="2.38" ry="2.38"/><rect class="cls-2" x="305.03" y="165.71" width="10.84" height="15.17" rx="2.38" ry="2.38"/><rect class="cls-2" x="158.66" y="182.43" width="9.42" height="5.88" rx="1.29" ry="1.29"/><rect class="cls-2" x="305.74" y="182.43" width="9.42" height="5.88" rx="1.29" ry="1.29"/><rect class="cls-2" x="174.82" y="255.16" width="32.44" height="10.12" rx="2.22" ry="2.22"/><circle class="cls-6" cx="180.62" cy="260.22" r="3.06"/><circle class="cls-6" cx="191.04" cy="260.22" r="3.06"/><circle class="cls-7" cx="201.46" cy="260.22" r="3.06"/><rect class="cls-2" x="266.19" y="255.16" width="32.44" height="10.12" rx="2.22" ry="2.22"/><circle class="cls-6" cx="271.99" cy="260.22" r="3.06"/><circle class="cls-6" cx="282.4" cy="260.22" r="3.06"/><circle class="cls-7" cx="292.82" cy="260.22" r="3.06"/><path class="cls-8" d="M279.35,260.22a3.06,3.06,0,0,1,3.06-3.06C284.09,257.16,279.35,261.91,279.35,260.22Z"/><path class="cls-8" d="M176.7,221.29a3.73,3.73,0,0,1-3.72-3.72V169.43a3.73,3.73,0,0,1,3.72-3.72h55a3.73,3.73,0,0,1,3.72,3.72Z"/><line class="cls-9" x1="235.15" y1="174.42" x2="235.15" y2="210.41"/><line class="cls-10" x1="234.84" y1="195.75" x2="220.38" y2="221.57"/><line class="cls-10" x1="239.36" y1="174.42" x2="239.36" y2="210.41"/><line class="cls-10" x1="239.67" y1="195.75" x2="254.13" y2="221.57"/><path class="cls-8" d="M181.53,222.19H290.77v10.06s-72.09,4.62-108.21,0Z"/><path id="Logo" class="cls-6" d="M238.91,237.85v-6.41a2,2,0,0,1,.62-1.46,2.2,2.2,0,0,1,2.63,0,2,2,0,0,1,.64,1.46v4.89a1.53,1.53,0,0,0,.38,1.27,1.45,1.45,0,0,0,2.12,0,1.54,1.54,0,0,0,.41-1.27v-9.39h-1.21v8.48a.24.24,0,0,1-.25.26c-.17,0-.21-.12-.21-.26v-5.24a3.18,3.18,0,0,0-.88-2.48,3.67,3.67,0,0,0-4.64,0,3.14,3.14,0,0,0-.84,2.48v6.41a2.05,2.05,0,0,1-.62,1.47,2.21,2.21,0,0,1-2.64,0,2.05,2.05,0,0,1-.65-1.47v-6.42a3.16,3.16,0,0,0-.89-2.47,2.5,2.5,0,0,0-2.28-.83,2.63,2.63,0,0,0-2.35.83,3.1,3.1,0,0,0-.82,2.47v5.24c0,.15-.06.26-.23.26s-.24-.12-.24-.26v-5.24a3.16,3.16,0,0,0-.88-2.47,3.66,3.66,0,0,0-4.63,0,3.1,3.1,0,0,0-.82,2.47v11h1.2v-9.7a2,2,0,0,1,.62-1.46,2.21,2.21,0,0,1,2.64,0,2,2,0,0,1,.61,1.46v4.89a1.56,1.56,0,0,0,.41,1.27,1.45,1.45,0,0,0,2.12,0,1.53,1.53,0,0,0,.4-1.27v-4.89a2,2,0,0,1,.62-1.46,1.84,1.84,0,0,1,1.35-.44A1.81,1.81,0,0,1,232,230a2,2,0,0,1,.63,1.46v6.4a3.13,3.13,0,0,0,.82,2.49,3.67,3.67,0,0,0,4.64,0,3.18,3.18,0,0,0,.87-2.48m7.63,2.48a3.18,3.18,0,0,0,.88-2.48c0-3.56,0-7.34,0-10.91h-1.18v9.65a2.09,2.09,0,0,1-.65,1.48,2.21,2.21,0,0,1-2.64,0,2,2,0,0,1-.6-1.48v-4.89a1.51,1.51,0,0,0-.39-1.25,1.44,1.44,0,0,0-2.12,0,1.49,1.49,0,0,0-.38,1.25v9.44h1.17v-8.54a.22.22,0,0,1,.24-.25c.18,0,.24.1.24.25s0,4.14,0,5.24a3.14,3.14,0,0,0,.82,2.48,3.67,3.67,0,0,0,4.64,0M232,231.71a1.45,1.45,0,0,0-.35-1.25,1.37,1.37,0,0,0-1.08-.46,1.32,1.32,0,0,0-1,.46,1.53,1.53,0,0,0-.42,1.25v4.89a2.07,2.07,0,0,1-.64,1.47,2.21,2.21,0,0,1-2.64,0,2.06,2.06,0,0,1-.62-1.47v-4.89a1.54,1.54,0,0,0-.42-1.25,1.44,1.44,0,0,0-2.12,0,1.53,1.53,0,0,0-.41,1.25v9.44h1.25v-8.53c0-.15.06-.26.23-.26a.22.22,0,0,1,.24.25v5.24a3.12,3.12,0,0,0,.82,2.48,3.67,3.67,0,0,0,4.64,0,3.17,3.17,0,0,0,.87-2.48v-5.24a.26.26,0,0,1,.53,0v8.53H232v-9.44m2.25,4.63a1.53,1.53,0,0,0,.39,1.27,1.45,1.45,0,0,0,2.12,0,1.53,1.53,0,0,0,.4-1.27v-9.39H236v8.48a.24.24,0,0,1-.25.26.25.25,0,0,1-.26-.26v-8.48h-1.19v9.39m13.65,4.83h2.32V226.95h-2.31v14.22"/><path class="cls-11" d="M198.4,260.22a3.06,3.06,0,0,1,3.06-3.06C203.15,257.16,198.4,261.91,198.4,260.22Z"/><path class="cls-11" d="M289.76,260.22a3.06,3.06,0,0,1,3.06-3.06C294.51,257.16,289.76,261.91,289.76,260.22Z"/><text class="cls-12" transform="translate(316.84 255.16)">Reroute</text></svg>