<svg id="Layer_1" data-name="Layer 1" xmlns="http://www.w3.org/2000/svg" viewBox="0 0 668 304.01"><defs><style>.cls-1{fill:#7a7a7a;}.cls-2{fill:#317b87;}.cls-14,.cls-3,.cls-5,.cls-7{fill:#f16b6c;}.cls-10,.cls-13,.cls-4{fill:#fbf8ec;}.cls-5{stroke:#ee9499;}.cls-11,.cls-5,.cls-6,.cls-7{stroke-miterlimit:10;}.cls-6{fill:#231f20;}.cls-11,.cls-6{stroke:#fff;}.cls-7{stroke:#f16b6c;}.cls-11,.cls-7{stroke-width:2px;}.cls-12,.cls-8{fill:#fff;}.cls-9{fill:#ed313a;}.cls-10{opacity:0.2;}.cls-11{fill:none;}.cls-12{opacity:0.11;}.cls-13{font-size:36.71px;font-family:Intro-Inline, Intro Inline;}.cls-14{font-size:64.43px;}</style></defs><title>Artboard 1</title><rect class="cls-1" x="-0.21" y="191.06" width="668" height="125.49"/><polygon class="cls-2" points="16.95 178.8 -0.21 178.8 -0.21 170.04 6.01 170.04 6.01 166.24 17.3 166.24 17.3 157.48 27.32 157.48 27.32 152.53 37.35 152.53 37.35 147.57 42.3 147.57 42.3 137.55 57.28 137.55 57.28 141.35 64.54 141.35 64.54 118.88 72.03 118.88 72.03 116.35 80.79 116.35 80.79 118.88 87.01 118.88 87.01 145.04 91.96 145.04 91.96 83.97 124.45 83.97 124.45 135.13 129.06 135.13 133.21 130.87 133.21 121.19 141.97 114.97 141.97 108.86 178.15 108.86 178.15 105.06 183.1 105.06 183.1 96.3 191.86 96.3 191.86 92.5 201.88 92.5 201.88 96.3 209.37 96.3 209.37 86.28 221.82 86.28 221.82 107.48 231.84 107.48 231.84 112.43 235.64 112.43 235.64 81.21 295.56 81.21 295.56 97.45 311.8 97.45 311.8 91.23 326.78 91.23 326.78 97.45 331.74 97.45 331.74 73.72 341.76 73.72 341.76 77.52 350.52 77.52 350.52 74.98 356.39 74.98 357.31 61.73 358.24 74.98 362.04 74.98 362.96 61.73 363.88 74.98 369.64 74.98 369.64 77.52 377.13 77.52 377.13 105.06 388.43 105.06 388.43 102.52 389.69 102.52 389.69 58.85 393.73 58.85 397.76 27.63 401.79 58.85 405.94 58.85 405.94 102.52 408.47 102.52 408.47 112.55 417.23 112.55 417.23 91.35 421.03 91.35 421.03 86.39 436.01 86.39 436.01 81.44 450.99 81.44 450.99 86.39 455.94 86.39 455.94 90.77 455.94 110.13 459.75 110.13 459.75 120.15 463.55 120.15 463.55 86.51 474.84 86.51 474.84 82.7 486.13 82.7 486.13 86.51 492.35 86.51 492.35 49.06 499.84 49.06 499.84 41.57 527.38 41.57 527.38 49.06 535.91 49.06 535.91 92.73 552.15 92.73 552.15 86.51 577.16 86.51 577.16 113.93 602.16 113.93 602.16 127.64 608.38 127.64 608.38 143.89 614.6 143.89 614.6 141.35 619.56 141.35 622.9 114.16 626.7 137.66 631.88 137.66 631.88 108.86 666.8 108.86 666.8 169.58 666.8 178.8 632.12 178.8 57.51 178.8 41.96 178.8 27.9 178.8 16.95 178.8"/><rect class="cls-2" x="-0.21" y="142.5" width="668" height="125.49"/><rect class="cls-3" x="144.35" y="265" width="13.45" height="22.03" rx="3.2" ry="3.2"/><rect class="cls-3" x="242.7" y="265" width="13.45" height="22.03" rx="3.2" ry="3.2"/><rect class="cls-4" x="137.19" y="165.04" width="126.1" height="107.3" rx="12" ry="12"/><path class="cls-4" d="M256.23,166.28H143a3.88,3.88,0,0,1-3.62-4.07v-11.7a3.88,3.88,0,0,1,3.62-4.07l57-4.32,56.24,4.32a3.88,3.88,0,0,1,3.62,4.07v11.7A3.88,3.88,0,0,1,256.23,166.28Z"/><path class="cls-5" d="M250.88,164.28H148.35a3.63,3.63,0,0,1-3.62-3.62v-7.54a3.63,3.63,0,0,1,3.62-3.62l51.27-2.11,51.27,2.11a3.63,3.63,0,0,1,3.62,3.62v7.54A3.63,3.63,0,0,1,250.88,164.28Z"/><rect class="cls-3" x="141.12" y="167.73" width="57.73" height="51.36" rx="12" ry="12"/><rect class="cls-3" x="202.12" y="167.73" width="57.73" height="51.36" rx="12" ry="12"/><rect class="cls-6" x="160" y="226.95" width="78.97" height="5.72" rx="1.36" ry="1.36"/><rect class="cls-3" x="154.95" y="221.51" width="87.76" height="19.17" rx="4.56" ry="4.56"/><rect class="cls-7" x="127.22" y="167.73" width="10.01" height="14.02" rx="2.38" ry="2.38"/><rect class="cls-7" x="263.12" y="167.73" width="10.01" height="14.02" rx="2.38" ry="2.38"/><rect class="cls-7" x="127.88" y="183.18" width="8.7" height="5.44" rx="1.29" ry="1.29"/><rect class="cls-7" x="263.78" y="183.18" width="8.7" height="5.44" rx="1.29" ry="1.29"/><rect class="cls-3" x="142.82" y="250.38" width="29.97" height="9.35" rx="2.22" ry="2.22"/><circle class="cls-8" cx="148.18" cy="255.05" r="2.83"/><circle class="cls-8" cx="157.8" cy="255.05" r="2.83"/><circle class="cls-9" cx="167.43" cy="255.05" r="2.83"/><rect class="cls-3" x="227.23" y="250.38" width="29.97" height="9.35" rx="2.22" ry="2.22"/><circle class="cls-8" cx="232.59" cy="255.05" r="2.83"/><circle class="cls-8" cx="242.22" cy="255.05" r="2.83"/><circle class="cls-9" cx="251.84" cy="255.05" r="2.83"/><path class="cls-10" d="M239.39,255a2.83,2.83,0,0,1,2.83-2.83C243.78,252.22,239.39,256.61,239.39,255Z"/><path class="cls-10" d="M144.55,219.08a3.44,3.44,0,0,1-3.43-3.43V171.16a3.44,3.44,0,0,1,3.43-3.43h50.86a3.44,3.44,0,0,1,3.43,3.43Z"/><line class="cls-11" x1="198.56" y1="175.77" x2="198.56" y2="209.02"/><line class="cls-11" x1="198.27" y1="195.48" x2="184.91" y2="219.34"/><line class="cls-11" x1="202.44" y1="175.77" x2="202.44" y2="209.02"/><line class="cls-11" x1="202.73" y1="195.48" x2="216.09" y2="219.34"/><path class="cls-10" d="M149,219.91H249.95v9.29s-66.61,4.27-100,0Z"/><path id="Logo" class="cls-8" d="M202,234.38v-5.92a1.86,1.86,0,0,1,.57-1.35,2,2,0,0,1,2.43,0,1.87,1.87,0,0,1,.6,1.35V233a1.41,1.41,0,0,0,.35,1.17,1.34,1.34,0,0,0,2,0,1.42,1.42,0,0,0,.37-1.17V224.3H207.2v7.84a.22.22,0,0,1-.23.24c-.16,0-.19-.11-.19-.24V227.3A2.94,2.94,0,0,0,206,225a3.39,3.39,0,0,0-4.28,0,2.9,2.9,0,0,0-.78,2.29v5.92a1.9,1.9,0,0,1-.57,1.36,2,2,0,0,1-2.44,0,1.9,1.9,0,0,1-.6-1.36V227.3a2.92,2.92,0,0,0-.82-2.28,2.31,2.31,0,0,0-2.11-.76,2.43,2.43,0,0,0-2.17.76,2.86,2.86,0,0,0-.76,2.28v4.84c0,.13-.06.24-.22.24s-.22-.11-.22-.24V227.3a2.92,2.92,0,0,0-.81-2.28,3.38,3.38,0,0,0-4.28,0,2.87,2.87,0,0,0-.76,2.28v10.12h1.11v-9a1.88,1.88,0,0,1,.57-1.35,2,2,0,0,1,2.44,0,1.88,1.88,0,0,1,.57,1.35V233a1.44,1.44,0,0,0,.38,1.17,1.34,1.34,0,0,0,2,0,1.41,1.41,0,0,0,.37-1.17v-4.52a1.88,1.88,0,0,1,.57-1.35,1.7,1.7,0,0,1,1.25-.4,1.68,1.68,0,0,1,1.24.4,1.87,1.87,0,0,1,.58,1.35v5.92a2.89,2.89,0,0,0,.76,2.3,3.39,3.39,0,0,0,4.28,0,2.94,2.94,0,0,0,.81-2.3m7.05,2.3a2.94,2.94,0,0,0,.81-2.3c0-3.29,0-6.78,0-10.08h-1.09v8.92a1.93,1.93,0,0,1-.6,1.36,2,2,0,0,1-2.44,0,1.89,1.89,0,0,1-.56-1.36V228.7a1.39,1.39,0,0,0-.36-1.16,1.33,1.33,0,0,0-2,0,1.38,1.38,0,0,0-.35,1.16v8.72h1.08v-7.89a.2.2,0,0,1,.22-.23c.16,0,.22.1.22.23s0,3.82,0,4.84a2.9,2.9,0,0,0,.76,2.3,3.39,3.39,0,0,0,4.29,0m-13.4-8a1.34,1.34,0,0,0-.33-1.16,1.27,1.27,0,0,0-1-.43,1.22,1.22,0,0,0-1,.43,1.41,1.41,0,0,0-.39,1.16v4.52a1.91,1.91,0,0,1-.59,1.36,2,2,0,0,1-2.44,0,1.91,1.91,0,0,1-.58-1.36V228.7a1.42,1.42,0,0,0-.39-1.16,1.33,1.33,0,0,0-2,0,1.41,1.41,0,0,0-.38,1.16v8.72h1.16v-7.88c0-.14.05-.24.22-.24a.2.2,0,0,1,.22.23v4.84a2.89,2.89,0,0,0,.76,2.3,3.39,3.39,0,0,0,4.28,0,2.93,2.93,0,0,0,.8-2.3v-4.84a.24.24,0,0,1,.49,0v7.88h1.08V228.7m2.08,4.28a1.41,1.41,0,0,0,.36,1.17,1.34,1.34,0,0,0,2,0,1.42,1.42,0,0,0,.37-1.17V224.3h-1.11v7.84a.22.22,0,0,1-.23.24.23.23,0,0,1-.24-.24V224.3h-1.1V233m12.61,4.46h2.14V224.3h-2.14v13.14"/><path class="cls-12" d="M164.6,255a2.83,2.83,0,0,1,2.83-2.83C169,252.22,164.6,256.61,164.6,255Z"/><path class="cls-12" d="M249,255a2.83,2.83,0,0,1,2.83-2.83C253.41,252.22,249,256.61,249,255Z"/><text class="cls-13" transform="translate(274.04 250.38)">Re<tspan class="cls-14" x="47.69" y="0">route</tspan></text></svg>