<?xml version="1.0" encoding="utf-8"?>
<!-- Generator: Adobe Illustrator 20.1.0, SVG Export Plug-In . SVG Version: 6.00 Build 0)  -->
<svg version="1.1" id="Layer_1" xmlns="http://www.w3.org/2000/svg" xmlns:xlink="http://www.w3.org/1999/xlink" x="0px" y="0px"
	 viewBox="0 0 668 304" style="enable-background:new 0 0 668 304;" xml:space="preserve">
<style type="text/css">
	.st0{fill:#7A7A7A;}
	.st1{fill:#317B87;}
	.st2{fill:#F16B6C;}
	.st3{fill:#FBF8EC;}
	.st4{fill:#F16B6C;stroke:#EE9499;stroke-miterlimit:10;}
	.st5{fill:#231F20;stroke:#FFFFFF;stroke-miterlimit:10;}
	.st6{fill:#F16B6C;stroke:#F16B6C;stroke-width:2;stroke-miterlimit:10;}
	.st7{fill:#FFFFFF;}
	.st8{fill:#ED313A;}
	.st9{opacity:0.2;fill:#FBF8EC;enable-background:new    ;}
	.st10{fill:none;stroke:#FFFFFF;stroke-width:2;stroke-miterlimit:10;}
	.st11{opacity:0.11;fill:#FFFFFF;enable-background:new    ;}
	.st12{enable-background:new    ;}
</style>
<title>Artboard 1</title>
<rect x="-0.2" y="191.1" class="st0" width="668" height="125.5"/>
<polygon class="st1" points="17,178.8 -0.2,178.8 -0.2,170 6,170 6,166.2 17.3,166.2 17.3,157.5 27.3,157.5 27.3,152.5 37.3,152.5 
	37.3,147.6 42.3,147.6 42.3,137.6 57.3,137.6 57.3,141.4 64.5,141.4 64.5,118.9 72,118.9 72,116.3 80.8,116.3 80.8,118.9 87,118.9 
	87,145 92,145 92,84 124.4,84 124.4,135.1 129.1,135.1 133.2,130.9 133.2,121.2 142,115 142,108.9 178.1,108.9 178.1,105.1 
	183.1,105.1 183.1,96.3 191.9,96.3 191.9,92.5 201.9,92.5 201.9,96.3 209.4,96.3 209.4,86.3 221.8,86.3 221.8,107.5 231.8,107.5 
	231.8,112.4 235.6,112.4 235.6,81.2 295.6,81.2 295.6,97.4 311.8,97.4 311.8,91.2 326.8,91.2 326.8,97.4 331.7,97.4 331.7,73.7 
	341.8,73.7 341.8,77.5 350.5,77.5 350.5,75 356.4,75 357.3,61.7 358.2,75 362,75 363,61.7 363.9,75 369.6,75 369.6,77.5 377.1,77.5 
	377.1,105.1 388.4,105.1 388.4,102.5 389.7,102.5 389.7,58.8 393.7,58.8 397.8,27.6 401.8,58.8 405.9,58.8 405.9,102.5 408.5,102.5 
	408.5,112.6 417.2,112.6 417.2,91.3 421,91.3 421,86.4 436,86.4 436,81.4 451,81.4 451,86.4 455.9,86.4 455.9,90.8 455.9,110.1 
	459.8,110.1 459.8,120.2 463.5,120.2 463.5,86.5 474.8,86.5 474.8,82.7 486.1,82.7 486.1,86.5 492.4,86.5 492.4,49.1 499.8,49.1 
	499.8,41.6 527.4,41.6 527.4,49.1 535.9,49.1 535.9,92.7 552.2,92.7 552.2,86.5 577.2,86.5 577.2,113.9 602.2,113.9 602.2,127.6 
	608.4,127.6 608.4,143.9 614.6,143.9 614.6,141.4 619.6,141.4 622.9,114.2 626.7,137.7 631.9,137.7 631.9,108.9 666.8,108.9 
	666.8,169.6 666.8,178.8 632.1,178.8 57.5,178.8 42,178.8 27.9,178.8 "/>
<rect x="-0.2" y="142.5" class="st1" width="668" height="125.5"/>
<path class="st2" d="M147.6,265h7.1c1.8,0,3.2,1.4,3.2,3.2v15.6c0,1.8-1.4,3.2-3.2,3.2h-7.1c-1.8,0-3.2-1.4-3.2-3.2v-15.6
	C144.4,266.4,145.8,265,147.6,265z"/>
<path class="st2" d="M245.9,265h7.1c1.8,0,3.2,1.4,3.2,3.2v15.6c0,1.8-1.4,3.2-3.2,3.2h-7.1c-1.8,0-3.2-1.4-3.2-3.2v-15.6
	C242.7,266.4,244.1,265,245.9,265z"/>
<path class="st3" d="M149.2,165h102.1c6.6,0,12,5.4,12,12v83.3c0,6.6-5.4,12-12,12H149.2c-6.6,0-12-5.4-12-12V177
	C137.2,170.4,142.6,165,149.2,165z"/>
<path class="st3" d="M256.2,166.3H143c-2.1-0.1-3.7-2-3.6-4.1v-11.7c-0.1-2.1,1.5-3.9,3.6-4.1l57-4.3l56.2,4.3
	c2.1,0.1,3.7,2,3.6,4.1v11.7C260,164.3,258.4,166.1,256.2,166.3z"/>
<path class="st4" d="M250.9,164.3H148.4c-2,0-3.6-1.6-3.6-3.6v-7.5c0-2,1.6-3.6,3.6-3.6l51.3-2.1l51.3,2.1c2,0,3.6,1.6,3.6,3.6v7.5
	C254.5,162.7,252.9,164.3,250.9,164.3z"/>
<path class="st2" d="M153.1,167.7h33.7c6.6,0,12,5.4,12,12v27.4c0,6.6-5.4,12-12,12h-33.7c-6.6,0-12-5.4-12-12v-27.4
	C141.1,173.1,146.5,167.7,153.1,167.7z"/>
<path class="st2" d="M214.1,167.7h33.7c6.6,0,12,5.4,12,12v27.4c0,6.6-5.4,12-12,12h-33.7c-6.6,0-12-5.4-12-12v-27.4
	C202.1,173.1,207.5,167.7,214.1,167.7z"/>
<path class="st5" d="M161.4,226.9h76.2c0.8,0,1.4,0.6,1.4,1.4v3c0,0.8-0.6,1.4-1.4,1.4h-76.2c-0.8,0-1.4-0.6-1.4-1.4v-3
	C160,227.6,160.6,226.9,161.4,226.9z"/>
<path class="st2" d="M159.5,221.5h78.6c2.5,0,4.6,2,4.6,4.6v10.1c0,2.5-2,4.6-4.6,4.6h-78.6c-2.5,0-4.6-2-4.6-4.6v-10.1
	C154.9,223.6,157,221.5,159.5,221.5z"/>
<path class="st6" d="M129.6,167.7h5.2c1.3,0,2.4,1.1,2.4,2.4v9.3c0,1.3-1.1,2.4-2.4,2.4h-5.2c-1.3,0-2.4-1.1-2.4-2.4v-9.3
	C127.2,168.8,128.3,167.7,129.6,167.7z"/>
<path class="st6" d="M265.5,167.7h5.2c1.3,0,2.4,1.1,2.4,2.4v9.3c0,1.3-1.1,2.4-2.4,2.4h-5.2c-1.3,0-2.4-1.1-2.4-2.4v-9.3
	C263.1,168.8,264.2,167.7,265.5,167.7z"/>
<path class="st6" d="M129.2,183.2h6.1c0.7,0,1.3,0.6,1.3,1.3v2.9c0,0.7-0.6,1.3-1.3,1.3h-6.1c-0.7,0-1.3-0.6-1.3-1.3v-2.9
	C127.9,183.8,128.5,183.2,129.2,183.2z"/>
<path class="st6" d="M265.1,183.2h6.1c0.7,0,1.3,0.6,1.3,1.3v2.9c0,0.7-0.6,1.3-1.3,1.3h-6.1c-0.7,0-1.3-0.6-1.3-1.3v-2.9
	C263.8,183.8,264.4,183.2,265.1,183.2z"/>
<path class="st2" d="M145,250.4h25.5c1.2,0,2.2,1,2.2,2.2v4.9c0,1.2-1,2.2-2.2,2.2H145c-1.2,0-2.2-1-2.2-2.2v-4.9
	C142.8,251.4,143.8,250.4,145,250.4z"/>
<circle class="st7" cx="148.2" cy="255.1" r="2.8"/>
<circle class="st7" cx="157.8" cy="255.1" r="2.8"/>
<circle class="st8" cx="167.4" cy="255.1" r="2.8"/>
<path class="st2" d="M229.4,250.4H255c1.2,0,2.2,1,2.2,2.2v4.9c0,1.2-1,2.2-2.2,2.2h-25.5c-1.2,0-2.2-1-2.2-2.2v-4.9
	C227.2,251.4,228.2,250.4,229.4,250.4z"/>
<circle class="st7" cx="232.6" cy="255.1" r="2.8"/>
<circle class="st7" cx="242.2" cy="255.1" r="2.8"/>
<circle class="st8" cx="251.8" cy="255.1" r="2.8"/>
<path class="st9" d="M239.4,255c0-1.6,1.3-2.8,2.8-2.8l0,0C243.8,252.2,239.4,256.6,239.4,255z"/>
<path class="st9" d="M144.6,219.1c-1.9,0-3.4-1.5-3.4-3.4v-44.5c0-1.9,1.5-3.4,3.4-3.4h50.9c1.9,0,3.4,1.5,3.4,3.4L144.6,219.1z"/>
<line class="st10" x1="198.6" y1="175.8" x2="198.6" y2="209"/>
<line class="st10" x1="198.3" y1="195.5" x2="184.9" y2="219.3"/>
<line class="st10" x1="202.4" y1="175.8" x2="202.4" y2="209"/>
<line class="st10" x1="202.7" y1="195.5" x2="216.1" y2="219.3"/>
<path class="st9" d="M149,219.9h100.9v9.3c0,0-66.6,4.3-100,0L149,219.9z"/>
<path id="Logo" class="st7" d="M202,234.4v-5.9c0-0.5,0.2-1,0.6-1.4c0.7-0.5,1.7-0.5,2.4,0c0.4,0.3,0.6,0.8,0.6,1.4v4.5
	c-0.1,0.4,0.1,0.9,0.4,1.2c0.5,0.6,1.3,0.6,1.9,0.1c0,0,0.1-0.1,0.1-0.1c0.3-0.3,0.4-0.7,0.4-1.2v-8.7h-1.1v7.8
	c0,0.1-0.1,0.2-0.2,0.2c0,0,0,0,0,0c-0.2,0-0.2-0.1-0.2-0.2v-4.8c0.1-0.8-0.2-1.7-0.8-2.3c-1.2-1-3-1-4.3,0
	c-0.6,0.6-0.9,1.4-0.8,2.3v5.9c0,0.5-0.2,1-0.6,1.4c-0.7,0.6-1.7,0.6-2.4,0c-0.4-0.4-0.6-0.8-0.6-1.4v-5.9c0.1-0.8-0.2-1.7-0.8-2.3
	c-0.5-0.6-1.3-0.9-2.1-0.8c-0.8-0.1-1.6,0.2-2.2,0.8c-0.6,0.6-0.9,1.4-0.8,2.3v4.8c0,0.1-0.1,0.2-0.2,0.2s-0.2-0.1-0.2-0.2v-4.8
	c0.1-0.8-0.2-1.7-0.8-2.3c-1.2-1-3-1-4.3,0c-0.6,0.6-0.9,1.4-0.8,2.3v10.1h1.1v-9c0-0.5,0.2-1,0.6-1.4c0.7-0.6,1.7-0.6,2.4,0
	c0.4,0.4,0.6,0.8,0.6,1.4v4.6c-0.1,0.4,0.1,0.9,0.4,1.2c0.5,0.6,1.3,0.6,1.9,0.1c0,0,0.1-0.1,0.1-0.1c0.3-0.3,0.4-0.7,0.4-1.2v-4.5
	c0-0.5,0.2-1,0.6-1.4c0.3-0.3,0.8-0.4,1.2-0.4c0.5,0,0.9,0.1,1.2,0.4c0.4,0.4,0.6,0.8,0.6,1.4v5.9c-0.1,0.8,0.2,1.7,0.8,2.3
	c1.2,1,3,1,4.3,0c0.6-0.6,0.9-1.5,0.8-2.3 M209.2,236.7c0.6-0.6,0.9-1.5,0.8-2.3c0-3.3,0-6.8,0-10.1h-1.1v8.9c0,0.5-0.2,1-0.6,1.4
	c-0.7,0.6-1.7,0.6-2.4,0c-0.4-0.4-0.6-0.8-0.6-1.4v-4.5c0.1-0.4-0.1-0.8-0.4-1.2c-0.5-0.6-1.3-0.6-1.9-0.1c0,0-0.1,0.1-0.1,0.1
	c-0.3,0.3-0.4,0.7-0.4,1.2v8.7h1.1v-7.9c0-0.1,0.1-0.2,0.2-0.2c0,0,0,0,0.1,0c0.2,0,0.2,0.1,0.2,0.2s0,3.8,0,4.8
	c-0.1,0.8,0.2,1.7,0.8,2.3C206.1,237.7,207.9,237.7,209.2,236.7 M195.7,228.7c0.1-0.4,0-0.8-0.3-1.2c-0.3-0.3-0.6-0.4-1-0.4
	c-0.4,0-0.8,0.1-1,0.4c-0.3,0.3-0.4,0.7-0.4,1.2v4.5c0,0.5-0.2,1-0.6,1.4c-0.7,0.6-1.7,0.6-2.4,0c-0.4-0.4-0.6-0.8-0.6-1.4v-4.5
	c0.1-0.4-0.1-0.9-0.4-1.2c-0.5-0.6-1.3-0.6-1.9-0.1c0,0-0.1,0.1-0.1,0.1c-0.3,0.3-0.4,0.7-0.4,1.2v8.7h1.2v-7.9
	c0-0.1,0.1-0.2,0.2-0.2c0.1,0,0.2,0.1,0.2,0.2c0,0,0,0,0,0.1v4.8c-0.1,0.8,0.2,1.7,0.8,2.3c1.2,1,3,1,4.3,0c0.6-0.6,0.9-1.5,0.8-2.3
	v-4.8c0-0.1,0.1-0.2,0.2-0.2c0.1,0,0.2,0.1,0.2,0.2v7.9h1.1L195.7,228.7 M197.7,233c-0.1,0.4,0.1,0.9,0.4,1.2
	c0.5,0.6,1.3,0.6,1.9,0.1c0,0,0.1-0.1,0.1-0.1c0.3-0.3,0.4-0.7,0.4-1.2v-8.7h-1.1v7.8c0,0.1-0.1,0.2-0.2,0.2c0,0,0,0,0,0
	c-0.1,0-0.2-0.1-0.2-0.2c0,0,0,0,0,0v-7.8h-1.1L197.7,233 M210.4,237.5h2.1v-13.2h-2.1V237.5"/>
<path class="st11" d="M164.6,255c0-1.6,1.3-2.8,2.8-2.8l0,0C169,252.2,164.6,256.6,164.6,255z"/>
<path class="st11" d="M249,255c0-1.6,1.3-2.8,2.8-2.8l0,0C253.4,252.2,249,256.6,249,255z"/>
<g class="st12">
	<path class="st3" d="M299,249.4v1h-7.3l-4.4-7.6h-3.4v7.6c-2.2,0-4.4,0-6.6,0c0-8.6,0-17.1,0-25.7c3.7,0,7.5,0,11.3,0
		c10.1,0,11.9,12.2,5.4,16.6L299,249.4z M288.6,240.1c0.3,0,0.5,0,0.7,0l4.8,7.9h0.4l-3.7-6.1l-1.1-1.9c6.9-1.1,6.7-12.5-1.1-12.5
		h-8.3v20.4h0.4v-7.9H288.6z M288.6,239.7h-7.9v-11.9h7.9C296.2,227.8,296.3,239.7,288.6,239.7z M288.5,230.6c-1.5,0-3.2,0-4.7,0
		c0,2.1,0,4.3,0,6.4h4.7C292.1,236.9,292.3,230.6,288.5,230.6z"/>
	<path class="st3" d="M319,230.6c-3.8,0-5.7,0-9.5,0v3.6h8.7c0,1.9,0,3.9,0,5.8h-8.7c0,1.5,0,3,0,4.5c3.8,0,6,0,9.8,0
		c0,1.9,0,3.9,0,5.8c-6,0-10.4,0-16.4,0c0-8.6,0-17.2,0-25.7c5.9,0,10,0,16,0C319,226.6,319,228.6,319,230.6z M306.1,247.7h10.8
		v-0.4h-10.4c0-3.3,0-6.7,0-10h9.3v-0.4h-9.3v-9.1h10.1v-0.4h-10.5C306.1,234.1,306.1,240.9,306.1,247.7z"/>
</g>
<g class="st12">
	<path class="st2" d="M365.5,248.7v1.7h-12.9l-7.7-13.3h-6v13.3c-3.9,0-7.8,0-11.5,0c0-15,0-30,0-45.1c6.5,0,13.2,0,19.8,0
		c17.7,0.1,20.9,21.4,9.5,29.1L365.5,248.7z M347.2,232.3c0.5,0,0.9-0.1,1.3-0.1l8.4,13.9h0.8l-6.5-10.6l-1.9-3.4
		c12.2-2,11.8-21.9-2-21.9h-14.5v35.9h0.6v-13.8H347.2z M347.2,231.6h-13.9v-20.8h13.9C360.6,210.8,360.8,231.6,347.2,231.6z
		 M347.2,215.6c-2.7-0.1-5.5,0-8.2,0c0,3.7,0,7.5,0,11.1h8.2C353.4,226.7,353.7,215.7,347.2,215.6z"/>
	<path class="st2" d="M369.7,227.9c0-31.2,46.3-31.2,46.3,0C416,259.1,369.7,259.1,369.7,227.9z M410.4,227.9c0-24.2-35-24.2-35,0
		C375.4,252.1,410.4,252.1,410.4,227.9z M376,227.9c0,23.6,33.7,23.1,33.7,0C409.7,204.8,376,204.4,376,227.9z M404.2,227.9
		c0,16.4-22.6,16.4-22.6,0C381.6,211.7,404.2,211.7,404.2,227.9z"/>
	<path class="st2" d="M449,235.2v-29.9c3.7,0,7.3,0,11,0v30.1c0,9.9-8.5,15.7-17.8,15.7c-9.2,0-17.8-5.7-17.8-15.7v-30.1
		c3.6,0,7.3,0,10.9,0v29.9c0,3.7,3.5,5.5,6.9,5.5S449,238.8,449,235.2z M454.9,235.2v-25.6h-0.7v25.6c0,6.7-5.9,10.3-12,10.3
		s-12-3.6-12-10.3v-25.6h-0.7v25.6c0,7,6.3,11,12.8,11S454.9,242.2,454.9,235.2z"/>
	<path class="st2" d="M466.8,215.6c0-3.5,0-6.9,0-10.3h33.5c0,3.4,0,6.8,0,10.3h-11v34.8c-3.8,0-7.6,0-11.4,0v-34.8H466.8z
		 M483.9,246.1c0-11.9-0.1-23.6-0.1-35.4h12.1v-0.6h-24.8v0.6h12.2v35.4H483.9z"/>
	<path class="st2" d="M535.6,215.6c-6.7,0-10,0-16.7,0v6.4h15.3c0,3.4,0,6.8,0,10.2h-15.3c0,2.6,0,5.2,0,7.9c6.6,0,10.5,0,17.3,0
		c0,3.3,0,6.8,0,10.2c-10.6,0-18.3,0-28.7,0c0-15.1,0-30.1,0-45.1c10.4,0,17.6,0,28.2,0C535.6,208.6,535.6,212.1,535.6,215.6z
		 M512.8,245.6h18.9V245h-18.2c0-5.9,0-11.7,0-17.6h16.4v-0.6h-16.4v-16h17.7v-0.6h-18.4C512.8,221.8,512.8,233.7,512.8,245.6z"/>
</g>
</svg>
