<svg id="Layer_1" data-name="Layer 1" xmlns="http://www.w3.org/2000/svg" viewBox="0 0 510 506.5"><defs><style>.cls-1,.cls-3{fill:#f26b6d;}.cls-2,.cls-7{fill:#fbf8ec;}.cls-3{stroke:#ef959b;}.cls-3,.cls-4,.cls-8,.cls-9{stroke-miterlimit:10;}.cls-3,.cls-8{stroke-width:5px;}.cls-4{fill:#231f20;}.cls-4,.cls-8,.cls-9{stroke:#fff;}.cls-10,.cls-5{fill:#fff;}.cls-6{fill:#ee323a;}.cls-7{opacity:0.2;}.cls-8,.cls-9{fill:none;}.cls-9{stroke-width:3px;}.cls-10{opacity:0.11;}</style></defs><title>Artboard 1</title><rect class="cls-1" x="67.56" y="429.5" width="47" height="77" rx="12" ry="12"/><rect class="cls-1" x="411.31" y="429.5" width="47" height="77" rx="12" ry="12"/><rect class="cls-2" x="34.14" y="80.12" width="440.75" height="375.04" rx="12" ry="12"/><path class="cls-2" d="M450.91,84.45H55.12c-7,0-12.65-6.4-12.65-14.22V29.33c0-7.82,5.69-14.22,12.65-14.22L254.34,0,450.91,15.11c7,0,12.65,6.4,12.65,14.22V70.23C463.56,78.05,457.87,84.45,450.91,84.45Z"/><path class="cls-3" d="M432.2,77.47H73.83A12.69,12.69,0,0,1,61.19,64.82V38.47A12.69,12.69,0,0,1,73.83,25.82L253,18.45,432.2,25.82a12.69,12.69,0,0,1,12.65,12.65V64.82A12.69,12.69,0,0,1,432.2,77.47Z"/><rect class="cls-1" x="48.56" y="89.5" width="201.78" height="179.5" rx="12" ry="12"/><rect class="cls-1" x="261.78" y="89.5" width="201.78" height="179.5" rx="12" ry="12"/><rect class="cls-4" x="114.56" y="296.5" width="276" height="20" rx="10" ry="10"/><rect class="cls-1" x="96.93" y="277.5" width="306.75" height="67" rx="12" ry="12"/><rect class="cls-1" y="89.5" width="35" height="49" rx="12" ry="12"/><rect class="cls-1" x="475" y="89.5" width="35" height="49" rx="12" ry="12"/><rect class="cls-1" x="2.29" y="143.5" width="30.42" height="19" rx="9.5" ry="9.5"/><rect class="cls-1" x="477.29" y="143.5" width="30.42" height="19" rx="9.5" ry="9.5"/><rect class="cls-1" x="54.51" y="378.38" width="104.75" height="32.67" rx="12" ry="12"/><circle class="cls-5" cx="73.24" cy="394.71" r="9.88"/><circle class="cls-5" cx="106.88" cy="394.71" r="9.88"/><circle class="cls-6" cx="140.52" cy="394.71" r="9.88"/><rect class="cls-1" x="349.56" y="378.38" width="104.75" height="32.67" rx="12" ry="12"/><circle class="cls-5" cx="368.29" cy="394.71" r="9.88"/><circle class="cls-5" cx="401.93" cy="394.71" r="9.88"/><circle class="cls-6" cx="435.58" cy="394.71" r="9.88"/><path class="cls-7" d="M392.06,394.71a9.88,9.88,0,0,1,9.88-9.87C407.39,384.84,392.06,400.16,392.06,394.71Z"/><path class="cls-7" d="M60.56,269a12,12,0,0,1-12-12V101.5a12,12,0,0,1,12-12H238.34a12,12,0,0,1,12,12Z"/><line class="cls-8" x1="249.33" y1="117.63" x2="249.33" y2="233.83"/><line class="cls-9" x1="248.33" y1="186.5" x2="201.64" y2="269.89"/><line class="cls-9" x1="262.91" y1="117.62" x2="262.91" y2="233.83"/><line class="cls-9" x1="263.91" y1="186.5" x2="310.61" y2="269.89"/><path class="cls-7" d="M76.18,271.88H428.94v32.49s-232.81,14.91-349.48,0Z"/><path id="Logo" class="cls-5" d="M261.47,322.48V301.77a6.51,6.51,0,0,1,2-4.72,7.11,7.11,0,0,1,8.5,0,6.53,6.53,0,0,1,2.08,4.72v15.81c0,1.15-.18,2.65,1.24,4.09a4.69,4.69,0,0,0,6.86,0,5,5,0,0,0,1.31-4.09V287.25h-3.91v27.39a.78.78,0,0,1-.82.85c-.56,0-.67-.38-.67-.85V297.74c0-2.81-.45-5.72-2.86-8s-3.48-2.67-7.49-2.67-5.06.39-7.48,2.67-2.71,5.18-2.71,8v20.71a6.63,6.63,0,0,1-2,4.75,7.14,7.14,0,0,1-8.52,0,6.63,6.63,0,0,1-2.09-4.75V297.73c0-2.82-.45-5.71-2.87-8s-3.36-2.67-7.38-2.67-5.17.39-7.58,2.67-2.64,5.17-2.64,8v16.92c0,.47-.19.85-.76.85s-.77-.38-.77-.85V297.73c0-2.81-.42-5.71-2.84-8s-3.46-2.67-7.49-2.67-5.06.39-7.47,2.67-2.65,5.17-2.65,8v35.39h3.87V301.78a6.56,6.56,0,0,1,2-4.73,7.14,7.14,0,0,1,8.53,0,6.59,6.59,0,0,1,2,4.73v15.8a5,5,0,0,0,1.34,4.09,4.68,4.68,0,0,0,6.85,0,4.94,4.94,0,0,0,1.28-4.09v-15.8a6.58,6.58,0,0,1,2-4.73,5.94,5.94,0,0,1,4.36-1.41A5.85,5.85,0,0,1,239,297a6.55,6.55,0,0,1,2,4.73v20.68c0,2.87.24,5.77,2.65,8s3.48,2.67,7.48,2.67,5.08-.39,7.49-2.67,2.82-5.19,2.82-8m24.65,8c2.41-2.27,2.84-5.19,2.84-8,0-11.51,0-23.7,0-35.22H285.1v31.17a6.74,6.74,0,0,1-2.11,4.77,7.14,7.14,0,0,1-8.52,0,6.61,6.61,0,0,1-1.94-4.77V302.63a4.87,4.87,0,0,0-1.27-4,4.66,4.66,0,0,0-6.85,0c-1.43,1.43-1.24,2.89-1.24,4v30.48h3.78V305.55a.7.7,0,0,1,.77-.8c.57,0,.76.34.76.8,0,.63,0,13.37,0,16.93,0,2.83.25,5.75,2.66,8s3.49,2.67,7.49,2.67,5.07-.39,7.49-2.67m-46.83-27.87c0-1.17.29-2.62-1.14-4a4.44,4.44,0,0,0-3.48-1.5,4.25,4.25,0,0,0-3.37,1.5,4.93,4.93,0,0,0-1.36,4v15.8a6.67,6.67,0,0,1-2.07,4.76,7.13,7.13,0,0,1-8.52,0,6.66,6.66,0,0,1-2-4.76v-15.8a5,5,0,0,0-1.36-4,4.65,4.65,0,0,0-6.85,0,4.93,4.93,0,0,0-1.32,4v30.48h4V305.57c0-.48.19-.83.76-.83a.71.71,0,0,1,.77.81v16.92c0,2.83.24,5.75,2.66,8s3.48,2.67,7.48,2.67,5.07-.39,7.48-2.67,2.81-5.19,2.81-8V305.56a.85.85,0,0,1,1.71,0v27.56h3.77V302.63m7.28,14.95a4.94,4.94,0,0,0,1.27,4.09,4.68,4.68,0,0,0,6.85,0,5,5,0,0,0,1.28-4.09V287.25h-3.9v27.39a.77.77,0,0,1-.81.85.79.79,0,0,1-.84-.85V287.25h-3.85v30.33m44.09,15.6h7.48l0-45.91h-7.46v45.93"/><path class="cls-10" d="M130.65,394.71a9.88,9.88,0,0,1,9.88-9.87C146,384.84,130.65,400.16,130.65,394.71Z"/><path class="cls-10" d="M425.7,394.71a9.88,9.88,0,0,1,9.88-9.87C441,384.84,425.7,400.16,425.7,394.71Z"/></svg>